<svg height="33" viewBox="0 0 152 33" width="152" xmlns="http://www.w3.org/2000/svg" xmlns:xlink="http://www.w3.org/1999/xlink"><filter id="a" color-interpolation-filters="auto"><feColorMatrix in="SourceGraphic" values="0 0 0 0 0.000000 0 0 0 0 0.200000 0 0 0 0 0.627451 0 0 0 1.000000 0"/></filter><g fill="none" fill-rule="evenodd" filter="url(#a)" transform="translate(-100 -25)"><path d="m148.927 27.812h-.364v.85h.343c.314 0 .509-.134.509-.425 0-.28-.173-.425-.488-.425zm.739 2.472-.833-1.23h-.27v1.186h-.479v-2.875h.843c.585 0 .974.3.974.838 0 .414-.215.682-.562.795l.801 1.174zm-.727-3.69c-1.169 0-2.097.826-2.097 2.304 0 1.463.928 2.292 2.097 2.292 1.18 0 2.11-.829 2.11-2.292 0-1.478-.94-2.305-2.11-2.305zm0 4.899c-1.446 0-2.454-1.042-2.454-2.595 0-1.545 1.026-2.61 2.454-2.61 1.45 0 2.455 1.053 2.455 2.61 0 1.545-1.028 2.595-2.455 2.595zm-126.817-13.688h-7.467c.465-.766 7.467-12.539 7.467-12.539v12.54zm-3.188-17.804-18.934 31.49h6.437s4.669-7.839 4.83-8.107h10.865l.004 8.111 6.11-.001v-31.494h-9.312zm13.646-.001v31.495h5.938v-31.494zm10.26 0h5.929v31.495h-5.929zm18.997 16.621c-3.23-.872-3.905-1.362-3.82-2.753.07-1.262 1.063-1.988 2.722-1.988 2.052 0 4.561.748 6.717 2l.34.201.817-5.255-.193-.095c-2.214-1.045-4.864-1.602-7.681-1.602-2.711 0-5.016.866-6.505 2.434-1.178 1.251-1.783 2.87-1.752 4.669.103 4.856 2.34 6.23 7.639 7.639 3.504.894 4.215 1.425 4.19 3.153-.02 1.554-.916 2.14-3.299 2.14-2.492 0-5.302-.95-7.74-2.599l-.354-.243-.823 5.275.177.1c1.898 1.08 5.141 2.214 8.56 2.214 3.314 0 5.761-.812 7.275-2.395 1.18-1.242 1.76-2.921 1.733-5.005-.077-5.215-2.62-6.454-8.003-7.89m22.423 9.566-.307.085c-.408.116-.924.175-1.629.175-1.76 0-2.578-.821-2.578-2.597v-11.15h4.354l.08-5.128h-4.434v-7.572h-5.84v7.572h-3.05v5.127h3.05v12.08c0 4.781 2.414 7.12 7.391 7.12 1.606 0 2.59-.189 3.466-.386l.266-.053-.768-5.273m10.585.977c-1.461 0-2.365-.927-2.365-2.414 0-2.649 2.469-4.38 7.147-5.03v5.188c-1.452 1.467-3.101 2.256-4.782 2.256zm2.051-20.085c-3.692 0-6.48.93-8.697 1.83l-.21.085.761 5.051.332-.151c2.661-1.217 4.913-1.785 7.107-1.785 2.338 0 3.438 1.001 3.438 3.157v.618c-8.768.933-13.037 4.028-13.037 9.464 0 4.016 2.515 6.608 6.416 6.608 2.7 0 4.942-1.02 7.008-3.098.112.696.413 2.634.413 2.634h5.13v-16.39c0-5.467-2.75-8.023-8.66-8.023zm23.89 19.108-.302.085c-.406.116-.93.175-1.623.175-1.766 0-2.594-.821-2.594-2.597v-11.15h4.363l.08-5.128h-4.443v-7.572h-5.85v7.572h-3.035v5.127h3.035v12.08c0 4.781 2.43 7.12 7.41 7.12 1.601 0 2.631-.198 3.465-.386l.26-.053zm7.652-9.28c.267-3.43 1.71-5.401 3.99-5.401 3.07 0 3.884 2.863 4.005 5.401zm12.706 7.437c-2.656 1.906-4.828 2.727-7.283 2.727-3.188 0-5.167-2.232-5.507-6.115h13.836l.061-1.636c0-8.106-3.257-12.229-9.689-12.24-2.826-.009-5.143.908-6.888 2.717-2.125 2.185-3.249 5.586-3.249 9.802 0 7.63 4.17 12.357 10.852 12.357 3.264 0 6.225-.941 8.807-2.78l.146-.1-.72-5z" fill="#0033a0" transform="translate(100.334297 25.381008)"/></g></svg>